<svg width="18" height="19" viewBox="0 0 18 19" fill="none" xmlns="http://www.w3.org/2000/svg">
<path d="M8.57141 2.4732C10.8601 2.4732 11.1312 2.48191 12.035 2.52315C12.8707 2.56129 13.3245 2.70093 13.6266 2.81828C14.0267 2.97377 14.3122 3.15954 14.6122 3.45947C14.9121 3.75939 15.0979 4.04496 15.2533 4.44502C15.3707 4.74709 15.5103 5.20094 15.5485 6.03661C15.5897 6.94046 15.5984 7.21154 15.5984 9.50022C15.5984 11.7889 15.5897 12.06 15.5485 12.9638C15.5103 13.7995 15.3707 14.2533 15.2533 14.5554C15.0979 14.9555 14.9121 15.241 14.6122 15.541C14.3122 15.8409 14.0267 16.0267 13.6266 16.1821C13.3245 16.2995 12.8707 16.4391 12.035 16.4773C11.1313 16.5185 10.8602 16.5272 8.57141 16.5272C6.28259 16.5272 6.01152 16.5185 5.10784 16.4773C4.27213 16.4391 3.81828 16.2995 3.51625 16.1821C3.11615 16.0267 2.83059 15.8409 2.53066 15.541C2.23074 15.241 2.04496 14.9555 1.88951 14.5554C1.77212 14.2533 1.63249 13.7995 1.59435 12.9638C1.55311 12.06 1.5444 11.7889 1.5444 9.50022C1.5444 7.21154 1.55311 6.94046 1.59435 6.03664C1.63249 5.20094 1.77212 4.74709 1.88951 4.44502C2.04496 4.04496 2.23074 3.75939 2.53066 3.45947C2.83059 3.15954 3.11615 2.97377 3.51625 2.81828C3.81828 2.70093 4.27213 2.56129 5.1078 2.52315C6.01166 2.48191 6.28273 2.4732 8.57141 2.4732ZM8.57141 0.928772C6.24353 0.928772 5.95167 0.938639 5.03744 0.980353C4.12508 1.022 3.50202 1.16687 2.95678 1.37878C2.39314 1.59783 1.91513 1.89091 1.43862 2.36742C0.962106 2.84393 0.669021 3.32194 0.449972 3.88559C0.238068 4.43083 0.0931927 5.05388 0.0515469 5.96625C0.00983303 6.88045 0 7.17234 0 9.50022C0 11.8281 0.00983303 12.12 0.0515469 13.0342C0.0931927 13.9466 0.238068 14.5696 0.449972 15.1148C0.669021 15.6785 0.962106 16.1565 1.43862 16.633C1.91513 17.1095 2.39314 17.4026 2.95678 17.6217C3.50202 17.8336 4.12508 17.9784 5.03744 18.0201C5.95167 18.0618 6.24353 18.0716 8.57141 18.0716C10.8993 18.0716 11.1912 18.0618 12.1054 18.0201C13.0177 17.9784 13.6408 17.8336 14.186 17.6217C14.7497 17.4026 15.2277 17.1095 15.7042 16.633C16.1807 16.1565 16.4738 15.6785 16.6929 15.1148C16.9048 14.5696 17.0496 13.9466 17.0913 13.0342C17.133 12.12 17.1429 11.8281 17.1429 9.50022C17.1429 7.17234 17.133 6.88045 17.0913 5.96625C17.0496 5.05388 16.9048 4.43083 16.6929 3.88559C16.4738 3.32194 16.1807 2.84393 15.7042 2.36742C15.2277 1.89091 14.7497 1.59783 14.186 1.37878C13.6408 1.16687 13.0177 1.022 12.1054 0.980353C11.1912 0.938639 10.8993 0.928772 8.57141 0.928772ZM8.57141 5.09866C6.14051 5.09866 4.16985 7.06931 4.16985 9.50022C4.16985 11.9311 6.14051 13.9018 8.57141 13.9018C11.0023 13.9018 12.973 11.9311 12.973 9.50022C12.973 7.06931 11.0023 5.09866 8.57141 5.09866ZM8.57141 12.3574C6.99346 12.3574 5.71425 11.0782 5.71425 9.50022C5.71425 7.92227 6.99346 6.64306 8.57141 6.64306C10.1494 6.64306 11.4286 7.92227 11.4286 9.50022C11.4286 11.0782 10.1494 12.3574 8.57141 12.3574ZM14.1754 4.92476C14.1754 5.49283 13.7149 5.95335 13.1469 5.95335C12.5788 5.95335 12.1183 5.49283 12.1183 4.92476C12.1183 4.35669 12.5788 3.8962 13.1469 3.8962C13.7149 3.8962 14.1754 4.35669 14.1754 4.92476Z" fill="#DAF3FD"/>
</svg>
