<svg width="18" height="19" viewBox="0 0 18 19" fill="none" xmlns="http://www.w3.org/2000/svg">
<g clip-path="url(#clip0_16_858)">
<g clip-path="url(#clip1_16_858)">
<path d="M15.7347 0.928772H1.69329C0.836864 0.928772 0.142578 1.62306 0.142578 2.47948V16.5209C0.142578 17.3773 0.836864 18.0716 1.69329 18.0716H15.7347C16.5911 18.0716 17.2854 17.3773 17.2854 16.5209V2.47948C17.2854 1.62306 16.5911 0.928772 15.7347 0.928772ZM5.4473 15.731C5.4473 15.9803 5.24527 16.1823 4.99603 16.1823H3.07504C2.82579 16.1823 2.62376 15.9803 2.62376 15.731V7.67835C2.62376 7.4291 2.82579 7.22707 3.07504 7.22707H4.99603C5.24527 7.22707 5.4473 7.4291 5.4473 7.67835V15.731ZM4.03553 6.46798C3.02765 6.46798 2.21058 5.65091 2.21058 4.64303C2.21058 3.63514 3.02765 2.81808 4.03553 2.81808C5.04342 2.81808 5.86048 3.63514 5.86048 4.64303C5.86048 5.65091 5.04346 6.46798 4.03553 6.46798ZM15.4863 15.7674C15.4863 15.9965 15.3005 16.1823 15.0714 16.1823H13.01C12.7809 16.1823 12.5951 15.9965 12.5951 15.7674V11.9902C12.5951 11.4268 12.7604 9.52107 11.1226 9.52107C9.85217 9.52107 9.59448 10.8255 9.54274 11.4108V15.7674C9.54274 15.9965 9.357 16.1823 9.12781 16.1823H7.13413C6.90499 16.1823 6.7192 15.9965 6.7192 15.7674V7.642C6.7192 7.41286 6.90499 7.22707 7.13413 7.22707H9.12781C9.35695 7.22707 9.54274 7.41286 9.54274 7.642V8.34454C10.0138 7.6376 10.7139 7.09194 12.2045 7.09194C15.5052 7.09194 15.4863 10.1757 15.4863 11.87V15.7674Z" fill="#DAF3FD"/>
</g>
</g>
<defs>
<clipPath id="clip0_16_858">
<rect width="17.1429" height="17.1429" fill="white" transform="translate(0.142578 0.928772)"/>
</clipPath>
<clipPath id="clip1_16_858">
<rect width="17.1429" height="17.1429" fill="white" transform="translate(0.142578 0.928772)"/>
</clipPath>
</defs>
</svg>
