<svg width="388" height="293" viewBox="0 0 388 293" fill="none" xmlns="http://www.w3.org/2000/svg">
<g clip-path="url(#clip0_48_219)">
<path d="M147.226 260.344C146.853 260.344 146.481 260.279 146.125 260.15L122.224 251.463C120.824 250.954 119.994 249.666 120.109 248.181C120.225 246.695 121.244 245.551 122.706 245.265L188.718 232.341C189.251 232.236 189.806 232.27 190.322 232.434L208.768 238.345C210.17 238.795 211.05 240.036 211.008 241.509C210.967 242.981 210.019 244.172 208.593 244.541L148.037 260.241C147.77 260.31 147.497 260.344 147.226 260.344Z" fill="#C7EDFB"/>
<path d="M214.404 217.922L273.175 224.984L262.46 245.648L210.644 238.126C206.377 241.151 200.448 242.499 194.283 241.352C183.496 239.345 176.099 230.481 177.76 221.554C179.422 212.627 189.513 207.018 200.299 209.026C206.464 210.173 211.511 213.564 214.404 217.922Z" fill="#ED9DA0"/>
<path d="M296.008 52.0905C289.268 27.1525 263.588 12.4003 238.65 19.1404C213.712 25.8805 198.96 51.5607 205.7 76.4987C211.166 96.7235 229.09 110.246 248.972 111.041L273.293 166.371L307.77 117.26C307.77 117.26 294.847 107.614 285.96 95.2001C295.96 83.8205 300.257 67.8106 296.008 52.0905Z" fill="#ED9DA0"/>
<path d="M343.319 148.681C337.025 133.113 321.957 122.923 305.166 122.761C283.988 122.557 257.03 128.095 255.919 157.365C254.078 205.827 255.919 186.321 255.919 186.321C255.919 186.321 241.298 222.725 255.919 240.284C270.539 257.843 283.288 292.451 283.288 292.451H372.131C372.131 292.451 356.794 251.918 359.428 224.263C361.215 205.492 352.688 171.854 343.319 148.681Z" fill="#C7EDFB"/>
<path d="M218.852 192.988L162.227 248.296L165.646 249.503L222.803 195.621C222.803 195.621 223.461 191.671 218.852 192.988Z" fill="#090814"/>
<path d="M387.059 165.677C384.625 170.065 377.596 169.817 374.128 166.191C370.66 162.564 370.081 157.035 370.624 152.047C371.168 147.059 372.638 142.154 372.537 137.138C372.344 127.565 366.506 119.054 360.092 111.945C353.679 104.837 346.346 98.3064 341.965 89.7936L341.435 89.2487C343.307 83.0653 338.767 76.7487 333.656 72.7973C328.544 68.8459 322.415 65.8327 318.926 60.3956C315.957 55.7703 315.357 50.0801 314.057 44.7396C309.023 24.0478 291.62 6.88323 270.86 2.13579C250.1 -2.61165 226.966 5.28248 213.439 21.7297L213.764 21.0478C204.977 22.8265 197.502 29.9564 195.311 38.6496C194.676 41.1678 194.465 43.8751 195.309 46.3311C196.153 48.787 198.212 50.9319 200.777 51.3386C203.528 51.775 206.28 50.1561 207.976 47.946C209.671 45.7357 210.516 43.008 211.33 40.3439C214.383 51.5614 223.97 60.7393 235.309 63.3026C234.914 66.3487 236.303 69.5611 238.793 71.3599C241.282 73.1586 244.768 73.4683 247.536 72.1365L248.189 71.5155C251.391 71.6596 254.594 71.8037 257.797 71.9478C252.649 78.96 250.526 88.1162 252.06 96.6784C253.595 105.24 258.767 113.089 266.029 117.877C271.83 121.702 278.682 123.542 285.414 125.261C292.147 126.98 299.013 128.686 304.95 132.297C310.886 135.908 315.86 141.806 316.544 148.721C317.229 155.636 312.459 163.186 305.556 163.979C310.808 167.204 316.061 170.429 321.313 173.654C320.845 185.55 329.674 197.156 341.264 199.877C340.203 203.437 339.143 206.997 338.082 210.557C344.529 208.265 351.587 210.353 358.394 211.047C365.201 211.742 373.454 210.09 376.069 203.767C378.85 197.045 373.54 189.917 368.6 184.577C378.657 185.58 388.299 175.708 387.059 165.677Z" fill="#090814"/>
<path d="M67.4396 185.355L67.4133 184.686L63.4067 84.2585L67.8827 81.0364L68.1238 81.0557L161.639 88.6019L172.043 93.3724L172.061 93.773L176.084 179.122L67.4396 185.355ZM64.7506 84.913L68.7025 183.964L174.707 177.882L170.764 94.2353L161.301 89.8957L68.2595 82.388L64.7506 84.913Z" fill="#090814"/>
<path d="M162.391 149.201H78.3164C75.0268 149.201 72.3506 146.525 72.3506 143.236V118.545C72.3506 116.905 73.0026 115.377 74.1864 114.241C75.372 113.102 76.9339 112.514 78.5736 112.579L162.649 116.208C165.849 116.34 168.357 118.958 168.357 122.166V143.236C168.357 146.525 165.681 149.201 162.391 149.201Z" fill="#D6D6E3"/>
<path d="M112.845 118.947V147.193C112.845 147.773 112.766 148.339 112.614 148.873H78.3164C75.202 148.873 72.6802 146.351 72.6802 143.236V118.545C72.6802 115.339 75.3535 112.777 78.5601 112.909L110.79 114.298C112.054 115.444 112.845 117.103 112.845 118.947Z" fill="#C7EDFB"/>
<path d="M141.878 125.2H117.933V126.516H141.878V125.2Z" fill="#090814"/>
<path d="M160.581 132.527H117.933V133.844H160.581V132.527Z" fill="#090814"/>
<path d="M38.5346 41.6261L4.25877 38.1982L0.833496 3.26331L34.4246 7.37659L38.5346 41.6261ZM5.46375 36.9958L37.0313 40.1523L33.2401 8.55842L2.30468 4.7705L5.46375 36.9958Z" fill="#090814"/>
<path d="M10.1966 13.2382L10.061 14.5486L29.1556 16.5239L29.2912 15.2135L10.1966 13.2382Z" fill="#090814"/>
<path d="M10.1902 18.6041L10.0674 19.9158L29.162 21.7033L29.2848 20.3916L10.1902 18.6041Z" fill="#090814"/>
<path d="M10.1811 23.1828L10.0762 24.4958L29.1708 26.0223L29.2757 24.7093L10.1811 23.1828Z" fill="#090814"/>
<path d="M170.222 60.0622L135.946 56.6344L132.521 21.6995L166.112 25.8127L170.222 60.0622ZM137.151 55.432L168.718 58.5885L164.927 26.9946L133.992 23.2067L137.151 55.432Z" fill="#090814"/>
<path d="M141.884 31.6744L141.748 32.9847L160.843 34.96L160.978 33.6497L141.884 31.6744Z" fill="#090814"/>
<path d="M141.877 37.0401L141.754 38.3518L160.849 40.1394L160.972 38.8277L141.877 37.0401Z" fill="#090814"/>
<path d="M141.868 41.619L141.763 42.932L160.858 44.4585L160.963 43.1454L141.868 41.619Z" fill="#090814"/>
<path d="M104.273 46.2428L66.2153 41.4704V0L104.953 6.08923L104.273 46.2428ZM67.5322 40.3078L102.98 44.7536L103.617 7.21191L67.5322 1.54063V40.3078Z" fill="#090814"/>
<path d="M76.0516 13.898L75.8931 15.2058L97.6214 17.8395L97.7799 16.5317L76.0516 13.898Z" fill="#090814"/>
<path d="M76.6985 21.1394L76.563 22.4498L95.6576 24.4251L95.7931 23.1147L76.6985 21.1394Z" fill="#090814"/>
<path d="M173.091 95.2357L62.7734 86.9834V79.8448C62.7734 77.9942 63.5605 76.2208 64.932 74.9792C66.3042 73.7376 68.1483 73.1306 69.9886 73.3151L167.181 83.0309C170.551 83.3672 173.091 86.1745 173.091 89.5606L173.091 95.2357Z" fill="#090814"/>
<path d="M73.0096 83.0292C74.2823 83.0292 75.3141 81.9974 75.3141 80.7247C75.3141 79.4519 74.2823 78.4202 73.0096 78.4202C71.7368 78.4202 70.7051 79.4519 70.7051 80.7247C70.7051 81.9974 71.7368 83.0292 73.0096 83.0292Z" fill="white"/>
<path d="M80.9105 84.3461C82.1832 84.3461 83.215 83.3143 83.215 82.0416C83.215 80.7688 82.1832 79.7371 80.9105 79.7371C79.6377 79.7371 78.606 80.7688 78.606 82.0416C78.606 83.3143 79.6377 84.3461 80.9105 84.3461Z" fill="white"/>
<path d="M88.1532 85.0045C89.4259 85.0045 90.4577 83.9728 90.4577 82.7C90.4577 81.4273 89.4259 80.3955 88.1532 80.3955C86.8804 80.3955 85.8486 81.4273 85.8486 82.7C85.8486 83.9728 86.8804 85.0045 88.1532 85.0045Z" fill="white"/>
<path d="M193.88 250.97L251.111 266.088L237.643 285.072L187.364 270.46C182.72 272.867 176.661 273.382 170.714 271.394C160.308 267.915 154.207 258.114 157.086 249.503C159.966 240.891 170.735 236.731 181.14 240.21C187.087 242.198 191.618 246.254 193.88 250.97Z" fill="#ED9DA0"/>
<path d="M307.77 186.321C307.77 186.321 305.27 296.113 269.469 292.451C233.667 288.79 221.815 284.181 221.815 284.181C221.815 284.181 214.573 256.526 227.083 255.868C239.593 255.21 255.919 252.13 255.919 252.13V172.501" fill="#C7EDFB"/>
</g>
<defs>
<clipPath id="clip0_48_219">
<rect width="386.333" height="292.541" fill="white" transform="translate(0.833496)"/>
</clipPath>
</defs>
</svg>
