<svg width="18" height="19" viewBox="0 0 18 19" fill="none" xmlns="http://www.w3.org/2000/svg">
<g clip-path="url(#clip0_16_854)">
<path d="M13.5301 11.1952C13.7444 11.3066 13.8815 11.3666 13.9244 11.4524C13.9758 11.5466 13.9586 11.9752 13.7444 12.4638C13.5729 12.9438 12.6815 13.4066 12.2872 13.4238C11.8929 13.4409 11.8844 13.7324 9.75007 12.7981C7.61578 11.8638 6.33007 9.58379 6.22721 9.43807C6.12435 9.29236 5.40436 8.25522 5.43864 7.20093C5.4815 6.15521 6.03007 5.65807 6.25293 5.45236C6.45864 5.2295 6.69007 5.20379 6.83578 5.2295H7.23864C7.36721 5.2295 7.54721 5.17807 7.71007 5.61521L8.3015 7.21807C8.35293 7.3295 8.38721 7.45807 8.31007 7.59521L8.07864 7.94664L7.74436 8.30664C7.6415 8.4095 7.5215 8.52093 7.6415 8.73521C7.74436 8.95807 8.17293 9.6695 8.77293 10.2609C9.55293 11.0152 10.2386 11.2638 10.4444 11.3752C10.6501 11.4952 10.7786 11.4781 10.9072 11.3409L11.6015 10.5352C11.7644 10.3209 11.9015 10.3724 12.0986 10.4409L13.5301 11.1952ZM9.45864 0.943787C10.5843 0.943787 11.6989 1.16549 12.7388 1.59625C13.7787 2.027 14.7236 2.65837 15.5196 3.4543C16.3155 4.25023 16.9469 5.19514 17.3776 6.23507C17.8084 7.275 18.0301 8.3896 18.0301 9.51521C18.0301 11.7885 17.127 13.9687 15.5196 15.5761C13.9121 17.1836 11.7319 18.0866 9.45864 18.0866C7.77007 18.0866 6.2015 17.5981 4.87293 16.7581L0.887213 18.0866L2.21578 14.1009C1.34622 12.7296 0.885369 11.139 0.887213 9.51521C0.887213 7.24193 1.79027 5.06175 3.39773 3.4543C5.00518 1.84685 7.18536 0.943787 9.45864 0.943787ZM9.45864 2.65807C7.64001 2.65807 5.89587 3.38052 4.60991 4.66648C3.32395 5.95245 2.6015 7.69659 2.6015 9.51521C2.6015 10.9895 3.06436 12.3524 3.85293 13.4666L3.03007 15.9438L5.50721 15.1209C6.66246 15.9383 8.04351 16.3756 9.45864 16.3724C11.2773 16.3724 13.0214 15.6499 14.3074 14.3639C15.5933 13.078 16.3158 11.3338 16.3158 9.51521C16.3158 7.69659 15.5933 5.95245 14.3074 4.66648C13.0214 3.38052 11.2773 2.65807 9.45864 2.65807Z" fill="#DAF3FD"/>
</g>
<defs>
<clipPath id="clip0_16_854">
<rect width="17.1429" height="17.1429" fill="white" transform="translate(0.857422 0.928772)"/>
</clipPath>
</defs>
</svg>
