<svg width="30" height="24" viewBox="0 0 30 24" fill="none" xmlns="http://www.w3.org/2000/svg">
<path fill-rule="evenodd" clip-rule="evenodd" d="M0 1.99992C0 1.07944 0.746192 0.333252 1.66667 0.333252H28.3333C29.2538 0.333252 30 1.07944 30 1.99992C30 2.92039 29.2538 3.66659 28.3333 3.66659H1.66667C0.746192 3.66659 0 2.92039 0 1.99992ZM0 11.9999C0 11.0794 0.746192 10.3333 1.66667 10.3333H28.3333C29.2538 10.3333 30 11.0794 30 11.9999C30 12.9204 29.2538 13.6666 28.3333 13.6666H1.66667C0.746192 13.6666 0 12.9204 0 11.9999ZM0 21.9999C0 21.0794 0.746192 20.3333 1.66667 20.3333H13.3333C14.2538 20.3333 15 21.0794 15 21.9999C15 22.9204 14.2538 23.6666 13.3333 23.6666H1.66667C0.746192 23.6666 0 22.9204 0 21.9999Z" fill="#DAF3FD"/>
</svg>
