<svg width="25" height="25" viewBox="0 0 25 25" fill="none" xmlns="http://www.w3.org/2000/svg">
<path fill-rule="evenodd" clip-rule="evenodd" d="M12.5 2.50018C13.0523 2.50018 13.5 2.9479 13.5 3.50018V4.50018C13.5 5.05247 13.0523 5.50018 12.5 5.50018C11.9477 5.50018 11.5 5.05247 11.5 4.50018V3.50018C11.5 2.9479 11.9477 2.50018 12.5 2.50018ZM5.42893 5.42911C5.81946 5.03859 6.45262 5.03859 6.84315 5.42911L7.55025 6.13622C7.94078 6.52675 7.94078 7.15991 7.55025 7.55044C7.15973 7.94096 6.52656 7.94096 6.13604 7.55044L5.42893 6.84333C5.03841 6.4528 5.03841 5.81964 5.42893 5.42911ZM19.5711 5.42917C19.9616 5.81969 19.9616 6.45286 19.5711 6.84338L18.864 7.55049C18.4735 7.94101 17.8403 7.94101 17.4498 7.55049C17.0593 7.15996 17.0593 6.5268 17.4498 6.13628L18.1569 5.42917C18.5474 5.03864 19.1806 5.03864 19.5711 5.42917ZM12.5 9.50018C10.8431 9.50018 9.5 10.8433 9.5 12.5002C9.5 14.157 10.8431 15.5002 12.5 15.5002C14.1569 15.5002 15.5 14.157 15.5 12.5002C15.5 10.8433 14.1569 9.50018 12.5 9.50018ZM7.5 12.5002C7.5 9.73876 9.73858 7.50018 12.5 7.50018C15.2614 7.50018 17.5 9.73876 17.5 12.5002C17.5 15.2616 15.2614 17.5002 12.5 17.5002C9.73858 17.5002 7.5 15.2616 7.5 12.5002ZM2.5 12.5002C2.5 11.9479 2.94772 11.5002 3.5 11.5002H4.5C5.05228 11.5002 5.5 11.9479 5.5 12.5002C5.5 13.0525 5.05228 13.5002 4.5 13.5002H3.5C2.94772 13.5002 2.5 13.0525 2.5 12.5002ZM19.5 12.5002C19.5 11.9479 19.9477 11.5002 20.5 11.5002H21.5C22.0523 11.5002 22.5 11.9479 22.5 12.5002C22.5 13.0525 22.0523 13.5002 21.5 13.5002H20.5C19.9477 13.5002 19.5 13.0525 19.5 12.5002ZM17.4497 17.4499C17.8403 17.0594 18.4734 17.0594 18.864 17.4499L19.5711 18.157C19.9616 18.5476 19.9616 19.1807 19.5711 19.5713C19.1805 19.9618 18.5474 19.9618 18.1569 19.5713L17.4497 18.8641C17.0592 18.4736 17.0592 17.8405 17.4497 17.4499ZM6.13609 17.45C6.52662 17.0595 7.15978 17.0595 7.55031 17.45C7.94083 17.8405 7.94083 18.4737 7.55031 18.8642L6.8432 19.5713C6.45267 19.9618 5.81951 19.9618 5.42898 19.5713C5.03846 19.1808 5.03846 18.5476 5.42899 18.1571L6.13609 17.45ZM12.5 19.5002C13.0523 19.5002 13.5 19.9479 13.5 20.5002V21.5002C13.5 22.0525 13.0523 22.5002 12.5 22.5002C11.9477 22.5002 11.5 22.0525 11.5 21.5002V20.5002C11.5 19.9479 11.9477 19.5002 12.5 19.5002Z" fill="#F9FAFA"/>
</svg>
